<svg height="512" viewBox="0 0 58 58" width="512" xmlns="http://www.w3.org/2000/svg"><g id="Page-1" fill="none" fill-rule="evenodd"><g id="055---Coffee-and-Paper" fill-rule="nonzero"><path id="Shape" d="m10 36.78v-20.78h-8c-1.10320187.0032948-1.9967052.8967981-2 2v19c-.00000266 1.3278169.52815404 2.6011043 1.46799986 3.5390741.93984582.9379699 2.21418592 1.4635815 3.54200014 1.4609259l4.99.00001z" fill="#bdc3c7"/><path id="Shape" d="m53 2v28l-24.97 12-23.02.0004138c.08013011.0012471.1602858-.0020927.24-.0104138.08010447.0066649.16072763.0033056.24-.01.04066495-.0017575.08096316-.0084738.12-.02.12-.01.24-.03.36-.05.15591221-.0293662.30961098-.0694615.46-.12 2.02458833-.6038832 3.44761935-2.419751 3.55-4.53 0-.04.01-.09.01-.13.00829479-.0428082.0116501-.0864268.01-.13v-35c.0032948-1.10320187.8967981-1.9967052 2-2h39c1.1032019.0032948 1.9967052.89679813 2 2z" fill="#ecf0f1"/><path id="Shape" d="m34 52.44c-.415996.0003139-.7887375-.2569415-.936-.646-.7924042-2.6376064-3.2402866-4.4279828-5.994-4.384-5.292 0-7.841-4.153-8.417-7.71-.1563687-.9151544.0998695-1.85262.7-2.561.6070396-.722923 1.5030117-1.1399693 2.447-1.139h5.95c.5522847 0 1 .4477153 1 1s-.4477153 1-1 1h-5.95c-.353704-.0009591-.6895982.1550834-.917.426-.2230948.2593248-.3178218.6051885-.258.942.165 1.019 1.242 6.042 6.445 6.042 3.689 0 6.482 2.016 7.866 5.677.1159254.3072591.0736012.6518526-.1132342.9219256-.1868354.2700729-.4943654.4311981-.8227658.4310744z" fill="#95a5a5"/><path id="Shape" d="m5.61 41.96c-.03903684.0115262-.07933505.0182425-.12.02-.07927237.0133056-.15989553.0166649-.24.01.13-.01.25-.01.36-.03z" fill="#ecf0f1"/><path id="Shape" d="m5.61 41.96c-.03903684.0115262-.07933505.0182425-.12.02-.07927237.0133056-.15989553.0166649-.24.01.13-.01.25-.01.36-.03z" fill="#ecf0f1"/><g fill="#95a5a5"><rect id="Rectangle-path" height="7" rx="1" width="12" x="15" y="5"/><path id="Shape" d="m29 18h-14c-.5522847 0-1-.4477153-1-1s.4477153-1 1-1h14c.5522847 0 1 .4477153 1 1s-.4477153 1-1 1z"/><path id="Shape" d="m29 22h-14c-.5522847 0-1-.4477153-1-1s.4477153-1 1-1h14c.5522847 0 1 .4477153 1 1s-.4477153 1-1 1z"/><path id="Shape" d="m29 26h-14c-.5522847 0-1-.4477153-1-1s.4477153-1 1-1h14c.5522847 0 1 .4477153 1 1s-.4477153 1-1 1z"/><path id="Shape" d="m48 6h-14c-.5522847 0-1-.44771525-1-1s.4477153-1 1-1h14c.5522847 0 1 .44771525 1 1s-.4477153 1-1 1z"/><path id="Shape" d="m48 10h-14c-.5522847 0-1-.44771525-1-1s.4477153-1 1-1h14c.5522847 0 1 .44771525 1 1s-.4477153 1-1 1z"/></g><path id="Shape" d="m37 27c-.5522847 0-1-.4477153-1-1 .0185694-1.0159952.5077024-1.9658147 1.324-2.571.481-.441.676-.638.676-1.1s-.2-.656-.676-1.1c-.8309032-.5922319-1.3242151-1.5496379-1.3242151-2.57s.4933119-1.9777681 1.3242151-2.57c.48-.441.675-.637.675-1.094 0-.5522847.4477153-1 1-1s1 .4477153 1 1c-.0188858 1.015087-.5080508 1.9638601-1.324 2.568-.475.446-.675.637-.675 1.1s.2.656.676 1.1c.8309216.5928895 1.3241516 1.5507411 1.3241516 2.5715s-.49323 1.9786105-1.3241516 2.5715c-.476.438-.676.635-.676 1.094 0 .5522847-.4477153 1-1 1z" fill="#805333"/><path id="Shape" d="m43 27c-.5522847 0-1-.4477153-1-1 .0185694-1.0159952.5077024-1.9658147 1.324-2.571.481-.441.676-.638.676-1.1s-.2-.656-.676-1.1c-.8309032-.5922319-1.3242151-1.5496379-1.3242151-2.57s.4933119-1.9777681 1.3242151-2.57c.48-.441.675-.637.675-1.094 0-.5522847.4477153-1 1-1s1 .4477153 1 1c-.0188858 1.015087-.5080508 1.9638601-1.324 2.568-.475.446-.675.637-.675 1.1s.2.656.676 1.1c.8309216.5928895 1.3241516 1.5507411 1.3241516 2.5715s-.49323 1.9786105-1.3241516 2.5715c-.476.438-.676.635-.676 1.094 0 .5522847-.4477153 1-1 1z" fill="#805333"/><path id="Shape" d="m56 35v.19c-.0230435 2.7723609-.9421126 5.4629182-2.62 7.67-2.1280196 3.0208882-3.5341328 6.489985-4.11 10.14l-8.27 1-8.27-1c-.5758672-3.650015-1.9819804-7.1191118-4.11-10.14-1.6778874-2.2070818-2.5969565-4.8976391-2.62-7.67v-.19l15-1z" fill="#e64c3c"/><path id="Shape" d="m58 54.39v.01c-.0008599.465722-.2332555.9005267-.62 1.16l-3.31 2.21c-.2321409.150801-.5031791.2307225-.78.23h-25.23c-.316717-.0019481-.6234145-.1112312-.87-.31l-2.67-2.13c-.3315541-.2641757-.5232894-.6660825-.52-1.09v-.08c.0054951-.7692906.6306898-1.3900196 1.4-1.39h31.21c.3688952-.0007988.7229114.1453907.9837604.4062396.2608489.260849.4070384.6148652.4062396.9837604z" fill="#c03a2b"/><path id="Shape" d="m56 31.58v3.42h-30v-3.42c.0016509-.8719252.7080748-1.5783491 1.58-1.58h26.84c.8719252.0016509 1.5783491.7080748 1.58 1.58z" fill="#f9eab0"/></g></g></svg>