<svg id="Capa_1" enable-background="new 0 0 512 512" height="512" viewBox="0 0 512 512" width="512" xmlns="http://www.w3.org/2000/svg"><g><g><path d="m437 49h-.667l-180.333 158-10.667 17 10.667 53.333 256-22.222v-131.111c0-41.355-33.645-75-75-75z" fill="#fdc673"/><path d="m75.667 49h-.667c-41.355 0-75 33.645-75 75v131.111l256 22.222v-70.333z" fill="#ffdf8e"/></g><g><g><path d="m406.331 255.111-11.664 107.555 11.664 100.334h30l11.669-100.334-11.669-107.555z" fill="#fdae02"/><path d="m75.665 255.111-11.665 107.555 11.665 100.334h30l11.668-100.334-11.668-107.555z" fill="#fdcb02"/></g><g><path d="m436.331 255.111h75.669v207.889h-75.669z" fill="#ad6b3c"/><path d="m0 255.111h75.665v207.889h-75.665z" fill="#c57a44"/></g><g><path d="m256 255.111-10.001 99.223 10.001 78.666 15.003 30h61.367l15-9.665 15 9.665h43.961v-207.889z" fill="#fd8c02"/><path d="m256 433v-177.889h-150.335v207.889h43.971l15-6 15 6h61.367z" fill="#fdae02"/></g><g><path d="m332.37 433h30v30h-30z" fill="#fdae02"/><g><path d="m256 433-4 15 4 15h15.003v-30z" fill="#fdae02"/><path d="m241.003 433h14.997v30h-14.997z" fill="#fdcb02"/></g><path d="m149.636 433h30v30h-30z" fill="#fdcb02"/></g></g><g><g><path d="m256 192-10.667 63.999 10.667 62.223c34.364 0 62.222-27.858 62.222-62.222v-64z" fill="#ad6b3c"/><path d="m193.778 192v64c0 34.364 27.858 62.222 62.222 62.222v-126.222z" fill="#c57a44"/></g><g><path d="m436.333 49h-30l-150.333 128-10.667 15 10.667 15h47.222v49c0 26.038-21.184 47.222-47.222 47.222l-10.667 16.778 10.667 13.222c42.581 0 77.222-34.642 77.222-77.222v-49h103.111z" fill="#fdae02"/><path d="m105.667 49h-30v158h103.111v49c0 42.581 34.642 77.222 77.222 77.222v-30c-26.039 0-47.222-21.184-47.222-47.222v-49h47.222v-30z" fill="#fdcb02"/></g><g><path d="m256 78.917-10.667 49.083 10.667 49h150.333v-128h-43.963l-15 8.667-15-8.667h-61.367z" fill="#fd8c02"/><path d="m256 177v-98.083l-14.997-29.917h-61.367l-15 7-15-7h-43.969v128z" fill="#fdae02"/></g><g><path d="m332.37 49h30v29.917h-30z" fill="#fdae02"/><g><path d="m256 78.917h15.003v-29.917h-15.003l-5 14.999z" fill="#fdae02"/><path d="m241.003 49h14.997v29.917h-14.997z" fill="#fdcb02"/></g><path d="m149.636 49h30v29.917h-30z" fill="#fdcb02"/></g><g><path d="m255.997 240.995-4 15 4 15h15.003v-30z" fill="#fdae02"/><path d="m241 240.995h14.997v30h-14.997z" fill="#fdcb02"/></g></g></g></svg>